<svg width="467" height="398" viewBox="0 0 467 398" fill="none" xmlns="http://www.w3.org/2000/svg">
<g clip-path="url(#clip0_115_268)">
<rect width="159" height="302" rx="8" transform="matrix(-1 0 0 1 467 0.995605)" fill="#FFD4DB"/>
<path fill-rule="evenodd" clip-rule="evenodd" d="M388 283.996C379.716 283.996 373 277.28 373 268.996C373 260.711 379.716 253.996 388 253.996C396.284 253.996 403 260.711 403 268.996C403 277.28 396.284 283.996 388 283.996Z" fill="white"/>
<path fill-rule="evenodd" clip-rule="evenodd" d="M401 20.9956C399.895 20.9956 399 20.1002 399 18.9956C399 17.891 399.895 16.9956 401 16.9956C402.105 16.9956 403 17.891 403 18.9956C403 20.1002 402.105 20.9956 401 20.9956Z" fill="white"/>
<rect width="21" height="4" rx="2" transform="matrix(-1 0 0 1 394 16.9956)" fill="white"/>
<g clip-path="url(#clip1_115_268)">
<g clip-path="url(#clip2_115_268)">
<rect width="131" height="54" rx="4" transform="matrix(-1 0 0 1 453 28.9956)" fill="white"/>
<g clip-path="url(#clip3_115_268)">
<rect width="73" height="8.1" rx="3" transform="matrix(-1 0 0 1 414 45.1956)" fill="#FFDCE6"/>
<rect width="49" height="8.1" rx="3" transform="matrix(-1 0 0 1 414 58.6956)" fill="#FFDCE6"/>
</g>
<path fill-rule="evenodd" clip-rule="evenodd" d="M432 67.9956C425.373 67.9956 420 62.623 420 55.9956C420 49.3682 425.373 43.9956 432 43.9956C438.627 43.9956 444 49.3682 444 55.9956C444 62.623 438.627 67.9956 432 67.9956Z" fill="#FD1662" fill-opacity="0.46"/>
</g>
<g clip-path="url(#clip4_115_268)">
<rect width="131" height="42" rx="4" transform="matrix(-1 0 0 1 453 90.9956)" fill="white"/>
<g clip-path="url(#clip5_115_268)">
<rect width="73" height="6.3" rx="3" transform="matrix(-1 0 0 1 414 103.596)" fill="#FFDCE6"/>
<rect width="49" height="6.3" rx="3" transform="matrix(-1 0 0 1 414 114.096)" fill="#FFDCE6"/>
</g>
<path fill-rule="evenodd" clip-rule="evenodd" d="M432 123.996C425.373 123.996 420 118.623 420 111.996C420 105.368 425.373 99.9956 432 99.9956C438.627 99.9956 444 105.368 444 111.996C444 118.623 438.627 123.996 432 123.996Z" fill="#FD1662" fill-opacity="0.46"/>
</g>
<g clip-path="url(#clip6_115_268)">
<rect width="131" height="42" rx="4" transform="matrix(-1 0 0 1 453 140.996)" fill="white"/>
<g clip-path="url(#clip7_115_268)">
<rect width="73" height="6.3" rx="3" transform="matrix(-1 0 0 1 414 153.596)" fill="#FFDCE6"/>
<rect width="49" height="6.3" rx="3" transform="matrix(-1 0 0 1 414 164.096)" fill="#FFDCE6"/>
</g>
<path fill-rule="evenodd" clip-rule="evenodd" d="M432 173.996C425.373 173.996 420 168.623 420 161.996C420 155.368 425.373 149.996 432 149.996C438.627 149.996 444 155.368 444 161.996C444 168.623 438.627 173.996 432 173.996Z" fill="#FD1662" fill-opacity="0.28"/>
</g>
<g clip-path="url(#clip8_115_268)">
<rect width="131" height="42" rx="4" transform="matrix(-1 0 0 1 453 190.996)" fill="white"/>
<g clip-path="url(#clip9_115_268)">
<rect width="73" height="6.3" rx="3" transform="matrix(-1 0 0 1 414 203.596)" fill="#FFDCE6"/>
<rect width="49" height="6.3" rx="3" transform="matrix(-1 0 0 1 414 214.096)" fill="#FFDCE6"/>
</g>
<path fill-rule="evenodd" clip-rule="evenodd" d="M432 223.996C425.373 223.996 420 218.623 420 211.996C420 205.368 425.373 199.996 432 199.996C438.627 199.996 444 205.368 444 211.996C444 218.623 438.627 223.996 432 223.996Z" fill="#FD1662" fill-opacity="0.46"/>
</g>
</g>
</g>
<g clip-path="url(#clip10_115_268)">
<path fill-rule="evenodd" clip-rule="evenodd" d="M436.86 244.996C438.185 244.996 439.506 245.022 440.829 245.091C441.838 245.144 443.379 244.935 444.232 245.563C445.119 246.216 445.058 247.553 444.919 248.497C444.187 253.488 442.4 257.915 438.661 261.451C432.904 266.897 426.305 269.664 418.496 270.896C413.01 271.761 407.946 270.559 403.908 266.658C400.957 272.135 398.719 278.195 397.596 284.311C397.042 287.329 396.873 290.31 396.97 293.383C397.033 295.352 397.141 297.315 397.352 299.274C397.444 300.126 397.878 301.414 397.545 302.218C397.154 303.163 395.835 303.255 395.243 302.449C394.75 301.779 394.84 300.462 394.739 299.669C394.571 298.351 394.416 297.032 394.305 295.708C394.124 293.565 393.991 291.415 394 289.264C394.023 284.431 395.098 279.578 396.568 274.99C399.388 266.188 403.963 258.365 411.079 252.227C415.455 248.453 420.463 246.924 426.144 246.104C429.682 245.593 433.277 244.996 436.86 244.996" fill="#FE94B7"/>
<path fill-rule="evenodd" clip-rule="evenodd" d="M416.429 279.996C430.728 279.996 440.358 291.52 444.911 303.497C446.628 308.012 447.03 312.969 447.692 317.71C447.904 319.231 447.825 321.55 448.443 322.905C448.667 323.396 449.181 323.573 448.935 324.243C448.786 324.648 448.495 324.896 448.056 324.977C447.157 325.143 445.885 324.163 445.114 323.776C438.718 320.569 434.516 315.609 431.088 309.541C428.962 305.779 426.806 301.875 425.544 297.745C424.773 295.223 424.324 292.566 424.06 289.95C423.956 288.919 423.856 287.864 423.862 286.827C423.868 285.799 424.347 285.255 424.691 284.359C419.92 282.553 414.534 282.061 409.701 283.933C405.231 285.664 401.518 289.009 399.439 293.211C398.899 294.304 398.482 295.456 398.179 296.631C397.98 297.401 397.971 298.4 397.602 299.096C396.71 300.783 394.832 299.655 395.012 298.085C395.515 293.703 398.021 289.304 401.225 286.258C405.266 282.416 410.742 279.996 416.429 279.996" fill="#FE94B7"/>
<rect width="159" height="302" rx="8" transform="matrix(-1 0 0 1 401 26.9956)" fill="#FFDCE6"/>
<path fill-rule="evenodd" clip-rule="evenodd" d="M322 309.996C313.716 309.996 307 303.28 307 294.996C307 286.711 313.716 279.996 322 279.996C330.284 279.996 337 286.711 337 294.996C337 303.28 330.284 309.996 322 309.996Z" fill="white"/>
<path fill-rule="evenodd" clip-rule="evenodd" d="M335 46.9956C333.895 46.9956 333 46.1002 333 44.9956C333 43.891 333.895 42.9956 335 42.9956C336.105 42.9956 337 43.891 337 44.9956C337 46.1002 336.105 46.9956 335 46.9956Z" fill="white"/>
<rect width="21" height="4" rx="2" transform="matrix(-1 0 0 1 328 42.9956)" fill="white"/>
<g clip-path="url(#clip11_115_268)">
<g clip-path="url(#clip12_115_268)">
<rect width="131" height="54" rx="4" transform="matrix(-1 0 0 1 387 54.9956)" fill="white"/>
<g clip-path="url(#clip13_115_268)">
<rect width="73" height="8.1" rx="3" transform="matrix(-1 0 0 1 378 71.1956)" fill="#FFDCE6"/>
<rect width="49" height="8.1" rx="3" transform="matrix(-1 0 0 1 378 84.6956)" fill="#FFDCE6"/>
</g>
<path fill-rule="evenodd" clip-rule="evenodd" d="M270 88.9956C266.134 88.9956 263 85.8616 263 81.9956C263 78.1296 266.134 74.9956 270 74.9956C273.866 74.9956 277 78.1296 277 81.9956C277 85.8616 273.866 88.9956 270 88.9956Z" fill="#FFDCE6"/>
<path fill-rule="evenodd" clip-rule="evenodd" d="M270 84.9956C268.343 84.9956 267 83.6525 267 81.9956C267 80.3388 268.343 78.9956 270 78.9956C271.657 78.9956 273 80.3388 273 81.9956C273 83.6525 271.657 84.9956 270 84.9956Z" fill="#FFD4DB"/>
</g>
<g clip-path="url(#clip14_115_268)">
<rect width="131" height="42" rx="4" transform="matrix(-1 0 0 1 387 116.996)" fill="white"/>
<g clip-path="url(#clip15_115_268)">
<rect width="73" height="6.3" rx="3" transform="matrix(-1 0 0 1 348 129.596)" fill="#FFDCE6"/>
<rect width="49" height="6.3" rx="3" transform="matrix(-1 0 0 1 348 140.096)" fill="#FFDCE6"/>
</g>
<path fill-rule="evenodd" clip-rule="evenodd" d="M366 149.996C359.373 149.996 354 144.623 354 137.996C354 131.368 359.373 125.996 366 125.996C372.627 125.996 378 131.368 378 137.996C378 144.623 372.627 149.996 366 149.996Z" fill="#FD1662" fill-opacity="0.46"/>
</g>
<g clip-path="url(#clip16_115_268)">
<rect width="131" height="42" rx="4" transform="matrix(-1 0 0 1 387 166.996)" fill="white"/>
<g clip-path="url(#clip17_115_268)">
<rect width="73" height="6.3" rx="3" transform="matrix(-1 0 0 1 378 179.596)" fill="#FFDCE6"/>
<rect width="49" height="6.3" rx="3" transform="matrix(-1 0 0 1 378 190.096)" fill="#FD1662" fill-opacity="0.28"/>
</g>
<path fill-rule="evenodd" clip-rule="evenodd" d="M270 194.996C266.134 194.996 263 191.862 263 187.996C263 184.13 266.134 180.996 270 180.996C273.866 180.996 277 184.13 277 187.996C277 191.862 273.866 194.996 270 194.996Z" fill="#FFDCE6"/>
<path fill-rule="evenodd" clip-rule="evenodd" d="M270 190.996C268.343 190.996 267 189.652 267 187.996C267 186.339 268.343 184.996 270 184.996C271.657 184.996 273 186.339 273 187.996C273 189.652 271.657 190.996 270 190.996Z" fill="#FFD4DB"/>
</g>
<g clip-path="url(#clip18_115_268)">
<rect width="131" height="42" rx="4" transform="matrix(-1 0 0 1 387 216.996)" fill="white"/>
<g clip-path="url(#clip19_115_268)">
<rect width="73" height="6.3" rx="3" transform="matrix(-1 0 0 1 348 229.596)" fill="#FFDCE6"/>
<rect width="49" height="6.3" rx="3" transform="matrix(-1 0 0 1 348 240.096)" fill="#FFDCE6"/>
</g>
<path fill-rule="evenodd" clip-rule="evenodd" d="M366 249.996C359.373 249.996 354 244.623 354 237.996C354 231.368 359.373 225.996 366 225.996C372.627 225.996 378 231.368 378 237.996C378 244.623 372.627 249.996 366 249.996Z" fill="#FD1662" fill-opacity="0.46"/>
</g>
</g>
</g>
<g clip-path="url(#clip20_115_268)">
<rect width="335" height="346" rx="8" transform="matrix(-1 0 0 1 335 51.9956)" fill="#FFD4DB"/>
<rect width="70" height="81" rx="8" transform="matrix(-1 0 0 1 86 94.9956)" fill="white"/>
<path fill-rule="evenodd" clip-rule="evenodd" d="M51 141.996C42.1634 141.996 35 134.832 35 125.996C35 117.159 42.1634 109.996 51 109.996C59.8366 109.996 67 117.159 67 125.996C67 134.832 59.8366 141.996 51 141.996Z" fill="#FFDCE6"/>
<rect width="50" height="6" rx="3" transform="matrix(-1 0 0 1 76 145.996)" fill="#FFDCE6"/>
<rect width="34" height="6" rx="3" transform="matrix(-1 0 0 1 68 155.996)" fill="#FFDCE6"/>
<path d="M335 59.9956C335 55.5773 331.418 51.9956 327 51.9956H8C3.58172 51.9956 0 55.5773 0 59.9956V78.9956H335V59.9956Z" fill="#FD1662" fill-opacity="0.46"/>
<path fill-rule="evenodd" clip-rule="evenodd" d="M322 69.9956C319.791 69.9956 318 68.2047 318 65.9956C318 63.7865 319.791 61.9956 322 61.9956C324.209 61.9956 326 63.7865 326 65.9956C326 68.2047 324.209 69.9956 322 69.9956Z" fill="#FFD4DB"/>
<path fill-rule="evenodd" clip-rule="evenodd" d="M310 69.9956C307.791 69.9956 306 68.2047 306 65.9956C306 63.7865 307.791 61.9956 310 61.9956C312.209 61.9956 314 63.7865 314 65.9956C314 68.2047 312.209 69.9956 310 69.9956Z" fill="#FFD4DB"/>
<path fill-rule="evenodd" clip-rule="evenodd" d="M298 69.9956C295.791 69.9956 294 68.2047 294 65.9956C294 63.7865 295.791 61.9956 298 61.9956C300.209 61.9956 302 63.7865 302 65.9956C302 68.2047 300.209 69.9956 298 69.9956Z" fill="#FFD4DB"/>
<g clip-path="url(#clip21_115_268)">
<rect width="70" height="194" rx="8" transform="matrix(-1 0 0 1 86 183.996)" fill="white"/>
<g clip-path="url(#clip22_115_268)">
<rect width="34" height="26" rx="4" transform="matrix(-1 0 0 1 68 201.996)" fill="#FFDCE6"/>
<rect width="34" height="25" rx="4" transform="matrix(-1 0 0 1 68 235.996)" fill="#FD1662" fill-opacity="0.28"/>
<rect width="34" height="25" rx="4" transform="matrix(-1 0 0 1 68 268.996)" fill="#FFDCE6"/>
<rect width="34" height="25" rx="4" transform="matrix(-1 0 0 1 68 334.996)" fill="#FFDCE6"/>
<rect width="34" height="25" rx="4" transform="matrix(-1 0 0 1 68 301.996)" fill="#FD1662" fill-opacity="0.46"/>
</g>
</g>
<g clip-path="url(#clip23_115_268)">
<g clip-path="url(#clip24_115_268)">
<rect width="225" height="47" rx="4" transform="matrix(-1 0 0 1 319 95.9956)" fill="white"/>
<g clip-path="url(#clip25_115_268)">
<rect width="167" height="7.05" rx="3" transform="matrix(-1 0 0 1 310 110.096)" fill="#FFDCE6"/>
<rect width="112.096" height="7.05" rx="3" transform="matrix(-1 0 0 1 310 121.846)" fill="#FFDCE6"/>
</g>
<path fill-rule="evenodd" clip-rule="evenodd" d="M118.046 126.496C114.18 126.496 111.046 123.362 111.046 119.496C111.046 115.63 114.18 112.496 118.046 112.496C121.912 112.496 125.046 115.63 125.046 119.496C125.046 123.362 121.912 126.496 118.046 126.496Z" fill="#FFDCE6"/>
<path fill-rule="evenodd" clip-rule="evenodd" d="M118.046 122.496C116.389 122.496 115.046 121.152 115.046 119.496C115.046 117.839 116.389 116.496 118.046 116.496C119.703 116.496 121.046 117.839 121.046 119.496C121.046 121.152 119.703 122.496 118.046 122.496Z" fill="#FFD4DB"/>
</g>
<g clip-path="url(#clip26_115_268)">
<rect width="225" height="39" rx="4" transform="matrix(-1 0 0 1 319 150.996)" fill="white"/>
<g clip-path="url(#clip27_115_268)">
<rect width="167" height="5.85" rx="2.925" transform="matrix(-1 0 0 1 310 162.696)" fill="#FFDCE6"/>
<rect width="112.096" height="5.85" rx="2.925" transform="matrix(-1 0 0 1 310 172.446)" fill="#FFDCE6"/>
</g>
<path fill-rule="evenodd" clip-rule="evenodd" d="M118.046 177.496C114.18 177.496 111.046 174.362 111.046 170.496C111.046 166.63 114.18 163.496 118.046 163.496C121.912 163.496 125.046 166.63 125.046 170.496C125.046 174.362 121.912 177.496 118.046 177.496Z" fill="#FFDCE6"/>
<path fill-rule="evenodd" clip-rule="evenodd" d="M118.046 173.496C116.389 173.496 115.046 172.152 115.046 170.496C115.046 168.839 116.389 167.496 118.046 167.496C119.703 167.496 121.046 168.839 121.046 170.496C121.046 172.152 119.703 173.496 118.046 173.496Z" fill="#FFD4DB"/>
</g>
<g clip-path="url(#clip28_115_268)">
<rect width="225" height="39" rx="4" transform="matrix(-1 0 0 1 319 197.996)" fill="white"/>
<g clip-path="url(#clip29_115_268)">
<rect width="167" height="5.85" rx="2.925" transform="matrix(-1 0 0 1 310 209.696)" fill="#FFDCE6"/>
<rect width="112.096" height="5.85" rx="2.925" transform="matrix(-1 0 0 1 310 219.446)" fill="#FFDCE6"/>
</g>
<path fill-rule="evenodd" clip-rule="evenodd" d="M118.046 224.496C114.18 224.496 111.046 221.362 111.046 217.496C111.046 213.63 114.18 210.496 118.046 210.496C121.912 210.496 125.046 213.63 125.046 217.496C125.046 221.362 121.912 224.496 118.046 224.496Z" fill="#FFDCE6"/>
<path fill-rule="evenodd" clip-rule="evenodd" d="M118.046 220.496C116.389 220.496 115.046 219.152 115.046 217.496C115.046 215.839 116.389 214.496 118.046 214.496C119.703 214.496 121.046 215.839 121.046 217.496C121.046 219.152 119.703 220.496 118.046 220.496Z" fill="#FD1662" fill-opacity="0.28"/>
</g>
<g clip-path="url(#clip30_115_268)">
<rect width="225" height="39" rx="4" transform="matrix(-1 0 0 1 319 338.996)" fill="white"/>
<g clip-path="url(#clip31_115_268)">
<rect width="167" height="5.85" rx="2.925" transform="matrix(-1 0 0 1 310 350.696)" fill="#FFDCE6"/>
<rect width="112.096" height="5.85" rx="2.925" transform="matrix(-1 0 0 1 310 360.446)" fill="#FFDCE6"/>
</g>
<path fill-rule="evenodd" clip-rule="evenodd" d="M118.046 365.496C114.18 365.496 111.046 362.362 111.046 358.496C111.046 354.63 114.18 351.496 118.046 351.496C121.912 351.496 125.046 354.63 125.046 358.496C125.046 362.362 121.912 365.496 118.046 365.496Z" fill="#FFDCE6"/>
<path fill-rule="evenodd" clip-rule="evenodd" d="M118.046 361.496C116.389 361.496 115.046 360.152 115.046 358.496C115.046 356.839 116.389 355.496 118.046 355.496C119.703 355.496 121.046 356.839 121.046 358.496C121.046 360.152 119.703 361.496 118.046 361.496Z" fill="#FFD4DB"/>
</g>
<g clip-path="url(#clip32_115_268)">
<rect width="225" height="39" rx="4" transform="matrix(-1 0 0 1 319 291.996)" fill="white"/>
<g clip-path="url(#clip33_115_268)">
<rect width="167" height="5.85" rx="2.925" transform="matrix(-1 0 0 1 310 303.696)" fill="#FFDCE6"/>
<rect width="112.096" height="5.85" rx="2.925" transform="matrix(-1 0 0 1 310 313.446)" fill="#FFDCE6"/>
</g>
<path fill-rule="evenodd" clip-rule="evenodd" d="M118.046 318.496C114.18 318.496 111.046 315.362 111.046 311.496C111.046 307.63 114.18 304.496 118.046 304.496C121.912 304.496 125.046 307.63 125.046 311.496C125.046 315.362 121.912 318.496 118.046 318.496Z" fill="#FFDCE6"/>
<path fill-rule="evenodd" clip-rule="evenodd" d="M118.046 314.496C116.389 314.496 115.046 313.152 115.046 311.496C115.046 309.839 116.389 308.496 118.046 308.496C119.703 308.496 121.046 309.839 121.046 311.496C121.046 313.152 119.703 314.496 118.046 314.496Z" fill="#FFD4DB"/>
</g>
<g clip-path="url(#clip34_115_268)">
<rect width="225" height="39" rx="4" transform="matrix(-1 0 0 1 319 244.996)" fill="white"/>
<g clip-path="url(#clip35_115_268)">
<rect width="167" height="5.85" rx="2.925" transform="matrix(-1 0 0 1 310 256.696)" fill="#FFDCE6"/>
<rect width="112.096" height="5.85" rx="2.925" transform="matrix(-1 0 0 1 310 266.446)" fill="#FFDCE6"/>
</g>
<path fill-rule="evenodd" clip-rule="evenodd" d="M118.046 271.496C114.18 271.496 111.046 268.362 111.046 264.496C111.046 260.63 114.18 257.496 118.046 257.496C121.912 257.496 125.046 260.63 125.046 264.496C125.046 268.362 121.912 271.496 118.046 271.496Z" fill="#FFDCE6"/>
<path fill-rule="evenodd" clip-rule="evenodd" d="M118.046 267.496C116.389 267.496 115.046 266.152 115.046 264.496C115.046 262.839 116.389 261.496 118.046 261.496C119.703 261.496 121.046 262.839 121.046 264.496C121.046 266.152 119.703 267.496 118.046 267.496Z" fill="#FFD4DB"/>
</g>
</g>
</g>
<defs>
<clipPath id="clip0_115_268">
<rect width="159" height="302" fill="white" transform="matrix(-1 0 0 1 467 0.995605)"/>
</clipPath>
<clipPath id="clip1_115_268">
<rect width="131" height="204" fill="white" transform="matrix(-1 0 0 1 453 28.9956)"/>
</clipPath>
<clipPath id="clip2_115_268">
<rect width="131" height="54" fill="white" transform="matrix(-1 0 0 1 453 28.9956)"/>
</clipPath>
<clipPath id="clip3_115_268">
<rect width="73" height="21.6" fill="white" transform="matrix(-1 0 0 1 414 45.1956)"/>
</clipPath>
<clipPath id="clip4_115_268">
<rect width="131" height="42" fill="white" transform="matrix(-1 0 0 1 453 90.9956)"/>
</clipPath>
<clipPath id="clip5_115_268">
<rect width="73" height="16.8" fill="white" transform="matrix(-1 0 0 1 414 103.596)"/>
</clipPath>
<clipPath id="clip6_115_268">
<rect width="131" height="42" fill="white" transform="matrix(-1 0 0 1 453 140.996)"/>
</clipPath>
<clipPath id="clip7_115_268">
<rect width="73" height="16.8" fill="white" transform="matrix(-1 0 0 1 414 153.596)"/>
</clipPath>
<clipPath id="clip8_115_268">
<rect width="131" height="42" fill="white" transform="matrix(-1 0 0 1 453 190.996)"/>
</clipPath>
<clipPath id="clip9_115_268">
<rect width="73" height="16.8" fill="white" transform="matrix(-1 0 0 1 414 203.596)"/>
</clipPath>
<clipPath id="clip10_115_268">
<rect width="207" height="302" fill="white" transform="matrix(-1 0 0 1 449 26.9956)"/>
</clipPath>
<clipPath id="clip11_115_268">
<rect width="131" height="204" fill="white" transform="matrix(-1 0 0 1 387 54.9956)"/>
</clipPath>
<clipPath id="clip12_115_268">
<rect width="131" height="54" fill="white" transform="matrix(-1 0 0 1 387 54.9956)"/>
</clipPath>
<clipPath id="clip13_115_268">
<rect width="73" height="21.6" fill="white" transform="matrix(-1 0 0 1 378 71.1956)"/>
</clipPath>
<clipPath id="clip14_115_268">
<rect width="131" height="42" fill="white" transform="matrix(-1 0 0 1 387 116.996)"/>
</clipPath>
<clipPath id="clip15_115_268">
<rect width="73" height="16.8" fill="white" transform="matrix(-1 0 0 1 348 129.596)"/>
</clipPath>
<clipPath id="clip16_115_268">
<rect width="131" height="42" fill="white" transform="matrix(-1 0 0 1 387 166.996)"/>
</clipPath>
<clipPath id="clip17_115_268">
<rect width="73" height="16.8" fill="white" transform="matrix(-1 0 0 1 378 179.596)"/>
</clipPath>
<clipPath id="clip18_115_268">
<rect width="131" height="42" fill="white" transform="matrix(-1 0 0 1 387 216.996)"/>
</clipPath>
<clipPath id="clip19_115_268">
<rect width="73" height="16.8" fill="white" transform="matrix(-1 0 0 1 348 229.596)"/>
</clipPath>
<clipPath id="clip20_115_268">
<rect width="335" height="346" fill="white" transform="matrix(-1 0 0 1 335 51.9956)"/>
</clipPath>
<clipPath id="clip21_115_268">
<rect width="70" height="194" fill="white" transform="matrix(-1 0 0 1 86 183.996)"/>
</clipPath>
<clipPath id="clip22_115_268">
<rect width="34" height="158" fill="white" transform="matrix(-1 0 0 1 68 201.996)"/>
</clipPath>
<clipPath id="clip23_115_268">
<rect width="225" height="282" fill="white" transform="matrix(-1 0 0 1 319 95.9956)"/>
</clipPath>
<clipPath id="clip24_115_268">
<rect width="225" height="47" fill="white" transform="matrix(-1 0 0 1 319 95.9956)"/>
</clipPath>
<clipPath id="clip25_115_268">
<rect width="167" height="18.8" fill="white" transform="matrix(-1 0 0 1 310 110.096)"/>
</clipPath>
<clipPath id="clip26_115_268">
<rect width="225" height="39" fill="white" transform="matrix(-1 0 0 1 319 150.996)"/>
</clipPath>
<clipPath id="clip27_115_268">
<rect width="167" height="15.6" fill="white" transform="matrix(-1 0 0 1 310 162.696)"/>
</clipPath>
<clipPath id="clip28_115_268">
<rect width="225" height="39" fill="white" transform="matrix(-1 0 0 1 319 197.996)"/>
</clipPath>
<clipPath id="clip29_115_268">
<rect width="167" height="15.6" fill="white" transform="matrix(-1 0 0 1 310 209.696)"/>
</clipPath>
<clipPath id="clip30_115_268">
<rect width="225" height="39" fill="white" transform="matrix(-1 0 0 1 319 338.996)"/>
</clipPath>
<clipPath id="clip31_115_268">
<rect width="167" height="15.6" fill="white" transform="matrix(-1 0 0 1 310 350.696)"/>
</clipPath>
<clipPath id="clip32_115_268">
<rect width="225" height="39" fill="white" transform="matrix(-1 0 0 1 319 291.996)"/>
</clipPath>
<clipPath id="clip33_115_268">
<rect width="167" height="15.6" fill="white" transform="matrix(-1 0 0 1 310 303.696)"/>
</clipPath>
<clipPath id="clip34_115_268">
<rect width="225" height="39" fill="white" transform="matrix(-1 0 0 1 319 244.996)"/>
</clipPath>
<clipPath id="clip35_115_268">
<rect width="167" height="15.6" fill="white" transform="matrix(-1 0 0 1 310 256.696)"/>
</clipPath>
</defs>
</svg>
