<svg width="466" height="531" viewBox="0 0 466 531" fill="none" xmlns="http://www.w3.org/2000/svg">
<g opacity="0.5">
<path fill-rule="evenodd" clip-rule="evenodd" d="M178.223 111.445C182.425 105.453 190.224 90.2348 196.138 88.0936C199.948 86.7146 198.837 100.98 198.884 103.7C199.067 114.224 198.043 124.681 196.778 135.116C194.498 153.937 187.045 170.697 176.822 186.715C171.562 194.957 165.391 203.3 156.845 208.442C152.912 210.811 148.179 211.207 144.294 213.248C139.769 215.623 142.233 213.703 140.194 218.417C137.363 224.963 136.457 233.408 135.147 240.392C129.132 272.455 114.568 441.945 117.093 474.558C117.317 477.449 113.287 478.14 113.085 474.611C112.016 455.9 121.27 326.322 125.94 283.947C130.609 241.571 135.334 204.134 140.071 189.474C145.819 171.687 156.199 150.298 164.84 133.711C168.854 126.006 173.229 118.565 178.223 111.445Z" fill="#69A1AC"/>
<path fill-rule="evenodd" clip-rule="evenodd" d="M209.414 319.278C220.349 311.25 232.186 326.401 222.29 334.43C216.82 338.868 211.101 337.29 207.882 333.591C205.792 336.139 203.836 338.803 201.956 341.052C196.229 347.909 190.817 354.928 185.644 362.111C174.898 377.035 165.689 392.801 156.06 408.278C146.558 423.554 137.132 438.908 128.519 454.571C121.223 467.841 111.498 483.452 109 498C112.79 467.146 127.172 437.49 144.298 410.291C161.285 383.314 180.779 353.853 207.081 332.564C204.404 328.627 204.33 323.008 209.414 319.278Z" fill="#C1DEE2"/>
<path fill-rule="evenodd" clip-rule="evenodd" d="M1.9132 244.031C8.03244 245.227 18.0312 259.07 23.0753 264.344C29.0699 270.612 34.5084 277.292 39.6349 284.292C50.6711 299.358 60.5411 315.376 68.9339 332.08C82.6164 359.311 93.5779 387.265 101.533 416.918C106.403 435.069 109.556 453.883 111.424 472.565C111.777 476.089 115.471 503.253 110.148 503.985C105.361 504.644 106.84 483.359 106.609 480.463C103.998 447.798 96.1772 416.015 85.2985 385.226C82.929 378.519 80.7276 370.304 76.9381 364.268C74.2092 359.921 76.9186 361.437 72.1228 359.792C68.0049 358.378 63.3131 358.724 59.0963 356.993C49.9356 353.237 42.6006 345.944 36.1709 338.608C23.6758 324.351 13.774 308.928 8.61264 290.66C5.74947 280.532 3.11836 270.344 1.65826 259.902C1.28056 257.203 -2.02816 243.26 1.9132 244.031Z" fill="#69A1AC"/>
<path fill-rule="evenodd" clip-rule="evenodd" d="M26.0614 13.716C49.1113 53.6904 68.0528 97.6012 80.2834 142.076C87.6937 169.023 92.876 196.675 98.025 224.126C105.997 266.632 113.538 309.134 115.683 352.395C117.841 395.906 122.108 446.092 107.861 488C114.978 445.452 108.202 400.162 107.002 357.35C106.429 336.912 104.768 316.674 102.588 296.355C100.473 276.645 97.0184 257.029 93.8009 237.474C92.2336 227.95 90.5876 218.441 88.9118 208.937C88.4115 206.101 88.2002 197.687 86.4014 195.75C84.5911 193.8 75.3543 193.005 72.4544 191.574C66.6149 188.693 61.1221 184.6 56.2609 180.275C46.9418 171.984 38.8347 161.151 32.4359 150.472C17.6307 125.764 11.7116 95.61 12.0108 66.9942C12.0682 61.4382 21.0034 1.60995 17.4149 0.786066C17.631 0.533029 17.8353 0.271761 18.028 0C20.7448 4.54878 23.4108 9.1284 26.0614 13.716Z" fill="#89C5CC"/>
<path fill-rule="evenodd" clip-rule="evenodd" d="M274.846 157.887C275.202 157.374 277.517 153.807 276.351 154.035C278.724 153.57 273.087 157.969 279 155.27C276.192 157.922 277.813 161.366 277.85 164.935C277.911 170.73 276.942 176.476 275.851 182.146C274.126 191.109 271.557 199.823 267.828 208.159C259.701 226.326 245.901 243.814 229.518 255.172C221.43 260.779 213.504 262.689 204.28 265.27C198.453 266.901 197.991 269.915 194.898 275.569C188.46 287.345 182.136 299.078 176.457 311.251C169.677 325.788 163.095 340.34 156.886 355.132C135.969 404.957 118.945 456.578 110.005 510C109.786 478.519 117.069 446.095 126.255 416.088C132.947 394.226 141.658 373.151 150.95 352.29C153.201 347.236 156.613 340.735 157.57 335.155C158.239 331.245 156.192 327.486 155.255 323.367C151.601 307.33 151.863 289.363 155.071 273.24C158.609 255.461 168.839 247.209 186.145 244.691C192.474 243.769 200.519 244.107 206.322 241.408C212.645 238.47 215.253 228.81 218.849 222.61C228.506 205.953 239.98 189.979 253.155 175.945C256.803 172.059 260.726 168.473 264.888 165.15C267.513 163.053 273.058 160.47 274.846 157.887Z" fill="#89C5CC"/>
<path fill-rule="evenodd" clip-rule="evenodd" d="M75.845 481.729C75.3997 478.71 77.7396 476 80.7915 476H142.209C145.26 476 147.6 478.71 147.155 481.729L142.408 513.918C140.961 523.73 132.541 531 122.622 531H100.378C90.4592 531 82.039 523.73 80.5919 513.918L75.845 481.729Z" fill="#C1DEE2"/>
</g>
<g clip-path="url(#clip0_701_215)">
<path d="M179.294 188H85.928C74.3698 188 65 197.354 65 208.894V302.136C65 313.675 74.3698 323.029 85.928 323.029H179.294C190.852 323.029 200.222 313.675 200.222 302.136V208.894C200.222 197.354 190.852 188 179.294 188Z" fill="#001221"/>
<path fill-rule="evenodd" clip-rule="evenodd" d="M109.656 255.022V259.215V263.114L132.648 274.518L155.565 263.114L162.787 259.583V267.602L155.565 271.134L132.648 282.537L102.435 267.602V259.215V251.785L109.656 255.022Z" fill="url(#paint0_linear_701_215)"/>
<path fill-rule="evenodd" clip-rule="evenodd" d="M148.344 230.155L162.787 236.777V254.801L155.565 258.332V247.15L132.648 257.45L113.709 248.989L100.592 243.03L97.9396 241.853V278.417H94.5498V240.308L75.0956 231.553L132.648 205.657L190.2 231.553L181.431 235.526L172.662 231.553L132.648 213.602L92.6339 231.553L98.087 234.054L108.477 229.346L112.53 231.185L102.14 235.894L132.648 249.578L153.207 240.308L139.648 234.054L148.344 230.155Z" fill="url(#paint1_linear_701_215)"/>
<path fill-rule="evenodd" clip-rule="evenodd" d="M97.8658 276.21L101.55 282.537H90.8652L94.5497 276.21" fill="url(#paint2_linear_701_215)"/>
<path fill-rule="evenodd" clip-rule="evenodd" d="M109.656 277.828V282.095V285.994L132.648 297.324L155.565 285.994L162.787 282.389V290.408L155.565 294.013L132.648 305.343L102.435 290.408V282.095V274.591L109.656 277.828Z" fill="url(#paint3_linear_701_215)"/>
<path d="M231.172 225.226V195.725H234.267V222.357H250.405V225.226H231.172Z" fill="white"/>
<path d="M251.215 214.338C251.215 207.717 255.121 203.008 261.311 203.008C267.501 203.008 270.891 206.172 270.891 212.646C270.904 213.509 270.83 214.372 270.67 215.221H254.163C254.31 220.003 256.226 222.798 261.385 222.798C266.543 222.798 267.575 220.812 267.575 218.163V217.943H270.67V218.237C270.67 222.43 266.911 225.668 261.385 225.668C254.679 225.668 251.215 220.959 251.215 214.338ZM254.163 212.94H267.869C268.09 207.79 265.511 205.73 261.237 205.73C256.963 205.73 254.458 208.526 254.163 212.94Z" fill="white"/>
<path d="M274.207 219.929C274.207 216.177 277.007 214.485 281.797 213.823L289.461 212.793V211.174C289.461 207.349 287.766 205.804 283.713 205.804C279.66 205.804 277.891 207.349 277.891 210.88V211.542H274.87V211.174C274.87 206.613 278.333 203.008 283.934 203.008C289.534 203.008 292.408 206.76 292.408 211.616V225.226H289.534V221.18H289.313C288.06 223.681 285.26 225.668 281.134 225.668C277.007 225.668 274.207 223.608 274.207 219.929ZM282.018 223.019C285.776 223.019 289.461 221.033 289.461 215.883V215.147L282.018 216.251C278.554 216.692 277.302 217.428 277.302 219.708C277.302 221.989 278.702 223.019 282.018 223.019Z" fill="white"/>
<path d="M297.272 225.226V203.229H300.146V206.834H300.367C301.03 204.847 303.167 203.008 306.409 203.008C310.904 203.008 312.599 206.245 312.599 209.997V211.174H309.431V210.439C309.431 207.054 308.399 205.73 305.23 205.73C302.062 205.73 300.44 207.275 300.44 210.806V225.226H297.272Z" fill="white"/>
<path d="M315.768 225.226V203.45H318.568V207.937H318.716C319.6 205.657 322.032 203.008 326.527 203.008C332.127 203.008 334.706 206.613 334.706 211.836V225.226H331.538V212.572C331.538 207.864 329.99 205.804 325.569 205.804C321.147 205.804 318.937 207.79 318.937 212.646V225.226H315.768Z" fill="white"/>
<path d="M230.435 277.975V248.474H244.952C251.289 248.474 254.679 250.754 254.679 255.831C254.679 259.362 252.689 261.643 248.784 262.158V262.599C253.5 262.967 255.858 265.91 255.858 269.882C255.858 273.855 252.394 277.975 245.689 277.975H230.435ZM237.067 260.171H244.51C247.015 260.171 248.047 259.656 248.047 257.302C248.047 254.948 246.941 254.433 244.51 254.433H237.067V260.171ZM237.067 272.016H245.468C247.899 272.016 249.226 271.575 249.226 268.852C249.226 266.13 247.899 265.542 245.468 265.542H237.067V272.016Z" fill="white"/>
<path d="M259.026 277.975V248.474H265.585V277.975H259.026Z" fill="white"/>
<path d="M268.606 266.94C268.606 259.878 272.88 255.39 280.028 255.39C287.176 255.39 291.229 259.878 291.229 266.94C291.229 274.003 287.102 278.417 280.028 278.417C272.954 278.417 268.606 273.929 268.606 266.94ZM284.818 266.94C284.818 262.6 283.565 261.202 280.028 261.202C276.491 261.202 275.165 262.6 275.165 266.94C275.165 271.281 276.417 272.605 280.028 272.605C283.639 272.605 284.818 271.207 284.818 266.94Z" fill="white"/>
<path d="M293.735 267.014C293.735 259.878 297.861 255.39 305.304 255.39C311.199 255.39 315.547 258.995 315.547 264.439V265.028H308.915V264.66C308.915 262.158 307.515 261.275 304.788 261.275C302.062 261.275 300.219 262.82 300.219 266.94C300.219 271.06 301.619 272.532 304.788 272.532C307.957 272.532 308.915 271.722 308.915 269.147V268.853H315.547V269.368C315.547 274.812 311.052 278.417 304.936 278.417C297.64 278.417 293.735 274.003 293.735 267.014Z" fill="white"/>
<path d="M318.568 277.975V248.474H325.127V264.07H328.369L333.38 255.831H340.97L333.748 266.425L340.97 277.975H333.38L328.516 269.956H325.127V277.975H318.568Z" fill="white"/>
<path d="M340.675 267.014C340.675 259.878 344.876 255.39 352.245 255.39C358.14 255.39 362.488 258.995 362.488 264.439V265.028H355.855V264.66C355.855 262.158 354.455 261.275 351.729 261.275C349.002 261.275 347.16 262.82 347.16 266.94C347.16 271.06 348.56 272.532 351.729 272.532C354.898 272.532 355.855 271.722 355.855 269.147V268.853H362.488V269.368C362.488 274.812 357.992 278.417 351.876 278.417C344.581 278.417 340.675 274.003 340.675 267.014Z" fill="white"/>
<path d="M365.509 277.975V248.474H372.067V259.288H372.362C373.097 258.061 374.148 257.053 375.404 256.367C376.661 255.682 378.079 255.344 379.51 255.389C385.184 255.389 387.616 259.215 387.616 263.923V277.975H380.984V265.248C380.984 262.158 379.952 261.054 376.636 261.054C373.32 261.054 372.067 262.158 372.067 265.468V277.975H365.509Z" fill="white"/>
<path d="M390.564 272.311C390.564 268.927 392.995 266.793 397.564 266.131L405.154 264.954V264.218C405.154 261.643 403.754 261.202 401.175 261.202C398.596 261.202 397.417 261.938 397.417 264.145V264.66H391.153V264.145C391.153 258.921 395.206 255.39 401.47 255.39C407.733 255.39 411.418 258.995 411.418 264.88V277.976H405.302V274.959H405.007C403.828 276.578 401.617 278.417 397.491 278.417C393.364 278.417 390.564 276.357 390.564 272.311ZM399.701 273.414C402.428 273.414 405.154 272.679 405.154 269.295L398.817 270.251C397.49 270.472 396.827 270.913 396.827 271.796C396.827 272.679 397.785 273.414 399.701 273.414Z" fill="white"/>
<path d="M415.103 253.329V248.474H421.661V253.329H415.103ZM415.103 277.975V255.831H421.661V277.975H415.103Z" fill="white"/>
<path d="M425.419 277.976V255.831H431.535V259.73H431.757C433.009 257.229 435.367 255.39 439.199 255.39C445.021 255.39 447.453 259.216 447.453 263.924V277.976H440.894V265.248C440.894 262.158 439.862 261.055 436.473 261.055C433.083 261.055 431.978 262.085 431.978 265.469V277.976H425.419Z" fill="white"/>
</g>
<g opacity="0.5">
<path fill-rule="evenodd" clip-rule="evenodd" d="M426.671 163.103C442.09 165.342 458.13 172.593 457.995 190.541C457.882 205.632 445.225 221.693 428.974 220.791C414.348 219.98 400.576 203.986 398.745 190.28C397.796 183.178 399.571 175.533 403.748 169.691C409.222 162.037 417.906 162.049 426.671 163.103ZM419.387 153.348C408.235 153.408 400.076 157.443 393.174 165.958C390.698 169.011 387.819 172.298 385.935 175.757C384.175 178.988 384.483 187.203 390.523 183.352C389.036 199.257 398.332 214.695 411.695 222.845C426.221 231.705 442.639 229.977 454.728 217.559C465.794 206.192 469.689 186.992 461.593 172.934C453.502 158.882 434.754 153.197 419.387 153.348Z" fill="#89C5CC"/>
<path fill-rule="evenodd" clip-rule="evenodd" d="M452.829 149.085C445.689 154.318 439.17 161.209 433.755 168.198C428.462 175.029 424.963 183.56 418.605 189.517C415.394 186.019 411.632 176.574 405.228 180.322C399.913 183.431 403.335 188.778 405.923 192.289C412.608 201.355 420.031 205.004 428.603 196.047C436.389 187.912 440.811 177.06 448.09 168.457C451.284 164.682 456.216 160.936 458.759 156.768C461.064 152.991 458.214 145.127 452.829 149.085Z" fill="#89C5CC"/>
</g>
<g opacity="0.5">
<path fill-rule="evenodd" clip-rule="evenodd" d="M334.973 323.032C326.548 323.126 318.128 323.437 309.721 323.969C301.725 324.476 293.05 324.091 285.185 325.641C282.952 326.081 279.935 328.117 282.905 330.355C284.992 331.929 292.628 330.119 295.121 329.966C304.3 329.402 313.484 328.726 322.676 328.401C331.378 328.093 340.079 327.985 348.785 327.898C350.114 327.885 352.321 327.459 353.645 327.845C355.546 328.4 355.095 328.55 355.238 330.964C355.496 335.338 355.424 339.728 355.338 344.107C355.254 348.343 355.097 352.58 355.112 356.818C355.123 359.842 354.156 365.852 355.674 368.478C357.858 372.258 360.124 368.152 360.287 365.64C360.6 360.835 360.46 355.972 360.461 351.161C360.462 346.646 360.494 342.13 360.335 337.617C360.22 334.357 360.686 328.666 358.93 325.702C357.141 322.683 352.834 323.334 349.692 323.19C344.79 322.965 339.879 322.981 334.973 323.032Z" fill="#89C5CC"/>
<path fill-rule="evenodd" clip-rule="evenodd" d="M281.373 328.481C281.383 336.965 280.401 345.392 280.126 353.867C280 357.763 279.744 362.041 280.73 365.866C281.725 369.728 284.885 370.565 285.249 366.254C285.986 357.523 285.805 348.47 286.379 339.67C286.582 336.562 287.9 330.868 286.669 327.959C285.585 325.396 281.369 324.904 281.373 328.481Z" fill="#89C5CC"/>
<path fill-rule="evenodd" clip-rule="evenodd" d="M360.37 365.878C345.74 367.814 330.445 367.108 315.711 367.413C308.642 367.559 301.574 367.568 294.504 367.642C292.037 367.667 285.771 366.729 283.636 368.116C280.238 370.324 283.925 372.028 286.175 372.077C300.127 372.382 314.234 371.741 328.184 371.283C334.451 371.077 340.739 370.977 346.99 370.444C350.838 370.116 355.043 369.798 358.78 368.764C359.576 368.544 361.309 368.59 361.488 367.504C361.598 366.832 361.398 365.736 360.37 365.878Z" fill="#89C5CC"/>
<path fill-rule="evenodd" clip-rule="evenodd" d="M299.534 378.21C295.468 378.234 283.215 376.345 281.531 380.31C279.286 385.598 288.044 384.364 290.399 384.304C295.748 384.166 301.094 384.151 306.445 384.154C311.695 384.156 316.945 384.122 322.194 383.997C323.715 383.961 327.255 384.592 328.129 382.761C328.794 381.369 328.269 380.271 327.043 379.534C324.092 377.761 316.427 378.789 312.972 378.63C308.5 378.424 304.012 378.21 299.534 378.21Z" fill="#89C5CC"/>
<path fill-rule="evenodd" clip-rule="evenodd" d="M349 379.189C346.677 379.328 341.976 378.37 339.895 379.433C337.529 380.642 338.362 382.534 340.405 383.366C341.82 383.942 347.622 383.64 349 382.973C350.437 382.277 352.061 379.001 349 379.189Z" fill="#89C5CC"/>
<path fill-rule="evenodd" clip-rule="evenodd" d="M374.476 329.313C371.995 329.994 372.748 344.084 372.684 346.318C372.508 352.437 371.82 360.134 373.854 366.028C375.151 369.785 377.641 369.276 377.217 365.32C376.844 361.848 376.205 358.416 375.928 354.922C375.302 347.015 374.45 338.581 375.042 330.667C375.293 331.127 377.648 335.392 378.202 335.074C378.034 335.173 375.486 329.047 374.476 329.313Z" fill="#89C5CC"/>
<path fill-rule="evenodd" clip-rule="evenodd" d="M402.394 324.124C397.371 324.198 392.349 324.287 387.327 324.426C383.335 324.537 377.062 323.881 373.4 325.561C369.041 327.56 371.109 332.015 375.204 332.11C378.826 332.193 382.689 331.376 386.344 331.251C396.218 330.913 406.108 330.841 415.986 330.756C424.919 330.679 434.232 331.632 443.087 330.291C444.401 341.953 440.848 353.665 442.057 365.462C442.244 367.293 442.16 369.88 444.492 370.297C447.434 370.824 447.555 367.909 447.667 365.822C447.986 359.863 447.813 353.899 448.249 347.932C448.654 342.402 449.45 336.751 448.777 331.212C447.95 324.397 444.684 324.943 438.911 324.66C426.718 324.062 414.6 323.945 402.394 324.124Z" fill="#89C5CC"/>
<path fill-rule="evenodd" clip-rule="evenodd" d="M385.561 365.537C383.002 365.601 378.751 364.812 377.112 367.266C375.405 369.82 377.43 372.047 379.911 372.571C382.847 373.191 386.676 372.341 389.724 372.332C392.898 372.322 396.073 372.358 399.247 372.37C412.855 372.424 426.522 372.63 440.12 372.067C442.019 371.988 447.409 372.625 448.724 370.804C449.89 369.188 449.074 367.739 447.538 366.916C445.018 365.565 439.841 366.079 437.038 365.972C433.576 365.84 430.11 365.797 426.646 365.743C412.975 365.532 399.232 365.198 385.561 365.537Z" fill="#89C5CC"/>
<path fill-rule="evenodd" clip-rule="evenodd" d="M397.073 377.34C391.98 377.427 386.547 377.204 381.505 377.976C377.072 378.655 376.526 382.941 381.298 383.442C385.684 383.903 391 383.042 395.407 382.759C396.973 382.658 398.793 382.801 399.543 381.071C400.326 379.263 398.829 377.529 397.073 377.34Z" fill="#89C5CC"/>
<path fill-rule="evenodd" clip-rule="evenodd" d="M435.572 377.79C432.854 377.858 424.914 376.69 423.568 379.794C421.327 384.963 432.075 382.999 434.137 382.923C436.735 382.827 446.863 384.345 446.866 380.208C446.868 376.151 438.061 377.729 435.572 377.79Z" fill="#89C5CC"/>
<path fill-rule="evenodd" clip-rule="evenodd" d="M280.934 403.474C280.94 412.877 280.355 422.367 281.213 431.746C281.567 435.625 281.507 443.056 283.754 446.344C285.348 448.679 287.56 448.515 288.432 445.712C289.014 443.838 288.082 440.091 287.979 438.086C287.878 436.163 287.762 434.24 287.673 432.316C287.444 427.358 287.462 422.409 287.53 417.449C287.589 413.194 288.613 407.566 287.647 403.474C286.747 399.661 280.934 398.769 280.934 403.474Z" fill="#69A1AC"/>
<path fill-rule="evenodd" clip-rule="evenodd" d="M375.43 395.202C359.117 395.611 342.768 395.246 326.469 396.053C318.431 396.451 310.425 397.326 302.427 398.198C298.498 398.626 294.571 399.068 290.648 399.551C289.465 399.697 279.629 400.078 283.328 403.819C284.944 405.452 290.084 403.746 292.118 403.505C296.056 403.04 300.002 402.635 303.946 402.218C311.45 401.424 318.964 400.672 326.5 400.255C344.25 399.272 362.072 399.567 379.839 398.911C384.645 398.734 389.437 398.607 394.245 398.796C395.507 398.846 404.784 399.317 400.756 395.891C398.852 394.27 391.671 395.106 389.29 395.057C384.671 394.962 380.048 395.086 375.43 395.202Z" fill="#69A1AC"/>
<path fill-rule="evenodd" clip-rule="evenodd" d="M397.669 411.043C397.588 406.699 397.508 402.354 397.31 398.014C397.102 393.443 403.328 392.751 405.175 396.451C406.504 399.115 406.27 403.647 406.07 407.532C405.989 409.097 405.914 410.558 405.949 411.748C406.028 414.476 406.229 417.298 406.432 420.156C406.944 427.35 407.472 434.781 406.128 441.572C405.474 444.872 402.69 446.606 400.838 444.808C400.835 444.812 400.832 444.815 400.83 444.819C400.133 445.846 397.963 445.844 396.366 445.842C395.926 445.842 395.529 445.842 395.218 445.863C390.841 446.16 386.545 446.662 382.207 447.312C373.563 448.608 364.994 449.404 356.256 449.621C350.328 449.767 344.391 449.817 338.452 449.866C327.081 449.96 315.703 450.055 304.368 450.832C300.546 451.095 296.782 451.545 293.023 452.264C292.703 452.326 292.348 452.405 291.97 452.489C289.174 453.11 285.128 454.01 284.852 450.104C284.523 445.468 294.571 444.861 299.742 444.548C300.531 444.501 301.207 444.46 301.715 444.413C317.415 442.952 333.362 443.178 349.13 443.402C349.894 443.413 350.657 443.424 351.42 443.434C352.651 443.451 353.881 443.471 355.111 443.492C361.861 443.603 368.604 443.714 375.353 443.301C378.424 443.113 381.535 443.017 384.652 442.92C389.625 442.766 394.613 442.611 399.476 442.084C398.743 439.24 398.615 435.884 398.494 432.721C398.447 431.489 398.401 430.287 398.32 429.155C397.893 423.126 397.781 417.085 397.669 411.043Z" fill="#69A1AC"/>
<path fill-rule="evenodd" clip-rule="evenodd" d="M410.871 401.363C408.668 401.663 406.829 403.549 407.813 405.941C409.053 408.953 412.744 407.776 415.182 407.586C422.932 406.978 431.024 408.191 438.68 407.276C440.771 407.026 443.805 405.887 441.928 403.077C440.516 400.966 435.375 401.336 433.189 401.134C425.714 400.443 418.337 400.627 410.871 401.363Z" fill="#C1DEE2"/>
<path fill-rule="evenodd" clip-rule="evenodd" d="M423.952 414.504C420.946 414.706 413.949 414.547 412.683 417.967C410.411 424.102 419.31 421.94 422.02 421.591C425.167 421.186 432.587 422.271 434.263 419.219C437.26 413.761 426.588 414.322 423.952 414.504Z" fill="#C1DEE2"/>
<path fill-rule="evenodd" clip-rule="evenodd" d="M416.223 427.968C414.797 429.394 414.795 431.942 416.223 433.368C417.971 435.115 421.78 434.752 424.078 434.88C427.282 435.059 436.484 436.753 438.076 432.98C440.222 427.89 431.889 427.996 429.148 427.707C425.98 427.374 418.848 425.341 416.223 427.968Z" fill="#C1DEE2"/>
<path fill-rule="evenodd" clip-rule="evenodd" d="M303.901 340.829C303.901 346.302 312.449 346.302 312.449 340.829C312.449 335.385 303.901 335.302 303.901 340.829Z" fill="#89C5CC"/>
<path fill-rule="evenodd" clip-rule="evenodd" d="M320.115 340.891C320.115 347.148 329.851 347.135 329.851 340.891C329.851 334.656 320.115 334.592 320.115 340.891Z" fill="#89C5CC"/>
<path fill-rule="evenodd" clip-rule="evenodd" d="M310.306 349.21C305.573 350.517 309.933 354.528 312.131 355.444C315.624 356.901 320.39 357.974 323.884 355.79C325.274 354.922 326.402 353.767 325.383 352.081C324.298 350.285 322.812 351.084 321.16 351.249C319.066 351.46 317.375 351.428 315.353 350.756C313.845 350.255 311.952 348.757 310.306 349.21Z" fill="#89C5CC"/>
<path fill-rule="evenodd" clip-rule="evenodd" d="M396.154 341.175C396.154 344.877 401.902 344.877 401.902 341.175C401.902 337.473 396.154 337.473 396.154 341.175Z" fill="#89C5CC"/>
<path fill-rule="evenodd" clip-rule="evenodd" d="M408.866 341.733C408.866 345.845 415.251 345.846 415.251 341.733C415.251 337.619 408.866 337.62 408.866 341.733Z" fill="#89C5CC"/>
<path fill-rule="evenodd" clip-rule="evenodd" d="M402.12 351.084C397.387 352.391 401.747 356.402 403.944 357.318C407.437 358.775 412.204 359.848 415.697 357.665C417.087 356.796 418.216 355.641 417.197 353.955C416.112 352.159 414.626 352.958 412.973 353.123C410.88 353.334 409.188 353.302 407.167 352.63C405.658 352.129 403.765 350.631 402.12 351.084Z" fill="#89C5CC"/>
<path fill-rule="evenodd" clip-rule="evenodd" d="M324.055 409.485C321.624 410.133 318.443 414.337 320.116 416.909C322.859 421.128 324.069 414.65 325.217 414.027C327.305 412.892 329.001 417.038 331.184 414.863C334.628 411.432 326.224 408.904 324.055 409.485Z" fill="#69A1AC"/>
<path fill-rule="evenodd" clip-rule="evenodd" d="M351.914 406.366C349.031 406.392 342.944 410.475 342.512 413.489C342.256 415.28 343.444 417 345.374 417.024C348.003 417.056 348.839 413.638 351.117 412.924C353.576 412.153 353.211 413.928 355.334 414.848C356.887 415.522 358.83 415.24 359.37 413.33C360.388 409.727 354.877 406.309 351.914 406.366Z" fill="#69A1AC"/>
<path fill-rule="evenodd" clip-rule="evenodd" d="M329.843 423.624C325.231 426.327 332.82 432.119 335.45 432.844C339.422 433.937 347.415 431.897 348.356 427.045C348.731 425.114 347.523 423.366 345.392 423.711C343.638 423.996 342.513 426.197 340.887 426.985C338.694 428.049 336.744 427.976 334.88 426.375C333.362 425.07 332.549 422.046 329.843 423.624Z" fill="#69A1AC"/>
<path fill-rule="evenodd" clip-rule="evenodd" d="M333.186 463.556C329.065 464.434 324.877 463.845 320.737 464.671C316.515 465.514 313.992 467.109 310.069 465.502C309.885 465.424 309.701 465.346 309.517 465.268C306.481 463.961 303.299 463.573 300.121 465.657C298.241 466.89 292.532 471.156 293.22 473.759C294.711 479.402 301.135 470.553 302.773 469.691C305.896 468.047 308.038 470.147 311.254 470.74C315.105 471.451 318.205 469.415 321.833 468.605C326.077 467.656 330.851 467.326 335.168 466.819C336.874 466.618 343.335 467.967 343.918 465.844C344.92 462.198 334.805 463.212 333.186 463.556Z" fill="#C1DEE2"/>
<path fill-rule="evenodd" clip-rule="evenodd" d="M362.913 474.92C363.182 475.124 362.966 474.96 362.913 474.92V474.92ZM374.453 463.335C377.98 462.977 389.266 460.457 391.583 464.102C393.092 466.476 390.697 475.239 388.412 476.372C386.586 477.277 382.332 476.276 380.328 476.205C376.6 476.074 372.863 476.016 369.139 475.783C367.89 475.705 363.871 475.935 362.892 474.83C361.735 473.524 361.787 466.565 361.515 464.84C364.758 465.889 371.062 463.679 374.453 463.335ZM381.985 459.761C377.467 459.957 372.951 460.297 368.467 460.902C365.967 461.24 363.435 462.138 361.127 462.564C360.382 462.701 359.175 462.321 358.262 462.761C355.596 464.049 357.931 472.759 358.574 475.086C359.561 478.66 362.047 479.239 365.529 479.576C370.116 480.02 374.798 479.88 379.399 479.824C383.835 479.77 389.816 480.753 392.305 476.302C393.913 473.424 395.639 466.723 394.264 463.516C392.455 459.296 385.7 459.605 381.985 459.761Z" fill="#C1DEE2"/>
<path fill-rule="evenodd" clip-rule="evenodd" d="M432.574 477.314C432.333 477.624 432.333 477.624 432.574 477.314V477.314ZM433.564 476.121C433.49 476.234 433.143 476.6 433.564 476.121V476.121ZM422.791 475.793C424.782 475.418 426.774 475.047 428.768 474.684C426.88 477.326 424.892 476.234 421.667 476.004C422.042 475.933 422.416 475.863 422.791 475.793ZM413.29 474.858C413.795 474.689 414.299 474.52 414.804 474.351C414.789 474.735 414.872 475.095 415.052 475.43C414.188 475.337 413.324 475.237 412.462 475.13C412.738 475.039 413.014 474.949 413.29 474.858ZM408.887 471.607C408.859 470.913 409.902 471.389 410.499 471.343C409.347 472.357 408.81 472.445 408.887 471.607ZM424.633 463.742C424.785 463.549 424.985 463.558 425.235 463.771C424.963 463.863 423.912 464.308 424.633 463.742ZM434.844 462.541C434.871 462.541 435.437 463.306 434.844 462.541V462.541ZM434.557 462.291C434.706 462.404 434.706 462.404 434.557 462.291V462.291ZM433.283 462.142C435.371 462.494 435.212 464.944 433.283 462.142V462.142ZM408.754 461.975C408.33 462.327 408.475 461.985 408.754 461.975V461.975ZM416.739 456.758C413.194 456.965 406.688 456.757 403.728 458.645C399.865 461.11 401.897 469.596 402.243 473.316C402.754 478.815 405.341 480.38 410.519 480.957C416.699 481.646 423.049 481.775 429.26 481.611C434.855 481.464 438.041 479.54 439.065 473.65C439.379 471.848 440.176 469.06 440.151 467.334C440.134 466.136 439.537 465.59 439.311 464.572C438.026 458.775 435.878 458.088 429.936 457.835C425.563 457.649 421.03 456.534 416.739 456.758Z" fill="#89C5CC"/>
</g>
<defs>
<linearGradient id="paint0_linear_701_215" x1="102.457" y1="267.161" x2="162.794" y2="267.161" gradientUnits="userSpaceOnUse">
<stop stop-color="#3BB5B6"/>
<stop offset="1" stop-color="#42E596"/>
</linearGradient>
<linearGradient id="paint1_linear_701_215" x1="1647.42" y1="5552.08" x2="19629" y2="5552.08" gradientUnits="userSpaceOnUse">
<stop stop-color="#3BB5B6"/>
<stop offset="1" stop-color="#42E596"/>
</linearGradient>
<linearGradient id="paint2_linear_701_215" x1="466.339" y1="1061.89" x2="620.846" y2="1061.89" gradientUnits="userSpaceOnUse">
<stop stop-color="#3BB5B6"/>
<stop offset="1" stop-color="#42E596"/>
</linearGradient>
<linearGradient id="paint3_linear_701_215" x1="3170.14" y1="4537.44" x2="8111.79" y2="4537.44" gradientUnits="userSpaceOnUse">
<stop stop-color="#3BB5B6"/>
<stop offset="1" stop-color="#42E596"/>
</linearGradient>
<clipPath id="clip0_701_215">
<rect width="384" height="135" fill="white" transform="translate(65 188)"/>
</clipPath>
</defs>
</svg>
