<svg width="120" height="120" viewBox="0 0 120 120" fill="none" xmlns="http://www.w3.org/2000/svg">
<path d="M60.327 119.165C93.2622 119.165 119.961 92.4892 119.961 59.5826C119.961 26.676 93.2622 0 60.327 0C27.3918 0 0.692505 26.676 0.692505 59.5826C0.692505 92.4892 27.3918 119.165 60.327 119.165Z" fill="url(#paint0_linear_104_134)"/>
<path opacity="0.1" d="M119.961 59.5826C119.961 92.4522 93.2252 119.165 60.327 119.165C27.4288 119.165 0.692505 92.4522 0.692505 59.5826C0.692505 58.4348 0.692505 57.287 0.796944 56.1392C2.5724 84.1044 28.5776 106.33 60.327 106.33C92.0763 106.33 118.082 84.1044 119.857 56.1392C119.961 57.287 119.961 58.4348 119.961 59.5826Z" fill="white"/>
<path d="M84.123 69.4553C86.2047 64.509 86.6839 59.0347 85.4932 53.802C84.3025 48.5692 81.5017 43.8412 77.4847 40.2827C73.4677 36.7243 68.4364 34.5142 63.0982 33.9633C57.7601 33.4124 52.3835 34.5484 47.7244 37.2116L44.5418 31.6387C49.4108 28.8558 54.9245 27.3984 60.5327 27.412C66.1409 27.4255 71.6476 28.9094 76.5032 31.7157C90.9086 40.0317 96.4269 57.8379 89.7119 72.6861L94.0175 75.1694L80.6548 82.2726L80.1254 67.1485L84.123 69.4553ZM36.8001 49.5444C34.7183 54.4907 34.2391 59.965 35.4298 65.1978C36.6205 70.4305 39.4213 75.1585 43.4383 78.717C47.4554 82.2755 52.4866 84.4855 57.8248 85.0364C63.1629 85.5873 68.5395 84.4513 73.1986 81.7882L76.3813 87.361C71.5122 90.1439 65.9985 91.6013 60.3903 91.5878C54.7821 91.5742 49.2754 90.0903 44.4198 87.284C30.0144 78.968 24.4961 61.1618 31.2111 46.3136L26.9023 43.8336L40.2651 36.7303L40.7944 51.8544L36.7968 49.5476L36.8001 49.5444ZM65.0013 68.573L55.9185 59.4999L46.8453 68.573L42.3088 64.0364L55.9217 50.4267L64.9981 59.4999L74.0745 50.4267L78.6111 54.9633L64.9981 68.573H65.0013Z" fill="white"/>
<path opacity="0.3" d="M65.34 119.687C32.5463 122.817 3.40794 98.8173 0.274776 66.0521C-2.85838 33.2869 21.1625 4.17385 53.9562 1.04341C55.1051 0.939065 56.2539 0.834717 57.2983 0.834717C29.622 5.21733 9.98757 33.1825 13.0163 64.7999C16.045 96.4173 40.5881 120.104 68.6821 119.27C67.5333 119.478 66.3844 119.583 65.34 119.687Z" fill="#5C0823"/>
<defs>
<linearGradient id="paint0_linear_104_134" x1="0.696787" y1="59.5896" x2="119.98" y2="59.5896" gradientUnits="userSpaceOnUse">
<stop stop-color="#FD1662"/>
<stop offset="1" stop-color="#FE5837"/>
</linearGradient>
</defs>
</svg>
