<svg width="120" height="120" viewBox="0 0 120 120" fill="none" xmlns="http://www.w3.org/2000/svg">
<g clip-path="url(#clip0_104_85)">
<path d="M60.3655 119.165C93.3007 119.165 120 92.4892 120 59.5826C120 26.676 93.3007 0 60.3655 0C27.4303 0 0.731079 26.676 0.731079 59.5826C0.731079 92.4892 27.4303 119.165 60.3655 119.165Z" fill="url(#paint0_linear_104_85)"/>
<path opacity="0.1" d="M120 59.5826C120 92.4522 93.2637 119.165 60.3655 119.165C27.4674 119.165 0.731079 92.4522 0.731079 59.5826C0.731079 58.4348 0.731079 57.287 0.835518 56.1392C2.61097 84.1044 28.6162 106.33 60.3655 106.33C92.1149 106.33 118.12 84.1044 119.896 56.1392C120 57.287 120 58.4348 120 59.5826Z" fill="white"/>
<path d="M52.8459 60.6262H58.4855C64.9607 60.6262 70.0782 65.8436 70.0782 72.2088H51.9059V74.8175H72.5848V72.2088C72.5848 69.4958 71.7493 66.7827 70.2871 64.4871H77.7023C82.7153 64.4871 87.2062 67.3045 89.3994 71.8958C83.2375 79.9305 73.4203 85.1479 62.2453 85.1479C55.1435 85.1479 49.0861 83.5827 44.1775 80.974V56.974C47.3106 57.3914 50.3393 58.6436 52.8459 60.6262ZM41.5665 80.0349C41.5665 81.4958 40.4177 82.6436 38.9555 82.6436H33.7336C32.2714 82.6436 31.1226 81.4958 31.1226 80.0349V56.7653C31.1226 55.3045 32.2714 54.1566 33.7336 54.1566H38.9555C40.4177 54.1566 41.5665 55.3045 41.5665 56.7653V80.0349ZM69.7055 42.2576C73.9875 42.2576 77.434 45.701 77.434 49.9793C77.434 54.2576 73.9875 57.701 69.7055 57.701C65.4235 57.701 61.9771 54.2576 61.9771 49.9793C61.9771 45.701 65.4235 42.2576 69.7055 42.2576Z" fill="white"/>
<path opacity="0.3" d="M65.3786 119.687C32.5849 122.817 3.44651 98.8173 0.31335 66.0521C-2.81981 33.2869 21.2011 4.17385 53.9948 1.04341C55.1436 0.939065 56.2925 0.834717 57.3369 0.834717C29.6606 5.21733 10.0261 33.1825 13.0549 64.7999C16.0836 96.4173 40.6267 120.104 68.7207 119.27C67.5718 119.478 66.423 119.583 65.3786 119.687Z" fill="#5C0823"/>
</g>
<defs>
<linearGradient id="paint0_linear_104_85" x1="0.735361" y1="59.5896" x2="120.018" y2="59.5896" gradientUnits="userSpaceOnUse">
<stop stop-color="#FD1662"/>
<stop offset="1" stop-color="#FE5837"/>
</linearGradient>
<clipPath id="clip0_104_85">
<rect width="120" height="120" fill="white"/>
</clipPath>
</defs>
</svg>
