<svg width="120" height="120" viewBox="0 0 120 120" fill="none" xmlns="http://www.w3.org/2000/svg">
<g clip-path="url(#clip0_104_125)">
<path d="M60.3656 119.165C93.3008 119.165 120 92.4892 120 59.5826C120 26.676 93.3008 0 60.3656 0C27.4303 0 0.731079 26.676 0.731079 59.5826C0.731079 92.4892 27.4303 119.165 60.3656 119.165Z" fill="url(#paint0_linear_104_125)"/>
<path opacity="0.1" d="M120 59.5826C120 92.4522 93.2637 119.165 60.3656 119.165C27.4674 119.165 0.731079 92.4522 0.731079 59.5826C0.731079 58.4348 0.731079 57.287 0.835518 56.1392C2.61098 84.1044 28.6162 106.33 60.3656 106.33C92.1149 106.33 118.12 84.1044 119.896 56.1392C120 57.287 120 58.4348 120 59.5826Z" fill="white"/>
<path fill-rule="evenodd" clip-rule="evenodd" d="M32.9936 41.7302L57.5065 27.5663C58.2553 27.1325 59.105 26.9041 59.9702 26.9041C60.8352 26.9041 61.6848 27.1325 62.4336 27.5663L86.9465 41.7302C87.6961 42.1621 88.319 42.7842 88.7518 43.5338C89.1847 44.2833 89.4123 45.1339 89.4118 45.9997V74.3384C89.4121 75.2047 89.1845 76.0556 88.7516 76.8058C88.319 77.5559 87.6964 78.1787 86.9465 78.6116L62.4336 92.7606C61.6848 93.1946 60.8352 93.423 59.9702 93.423C59.105 93.423 58.2553 93.1946 57.5065 92.7606L32.9936 78.6116C32.243 78.1769 31.6199 77.5523 31.1872 76.8001C30.7544 76.0481 30.5271 75.1951 30.5283 74.3273V45.9997C30.5286 45.1341 30.7566 44.2838 31.1894 43.5343C31.6221 42.7849 32.2444 42.1626 32.9936 41.7302ZM59.3478 46.2787C59.9799 46.0978 60.6576 46.1697 61.2378 46.4794L66.1831 49.3269V49.3638L74.0773 53.9214C74.6606 54.2574 75.3535 54.3476 76.0034 54.1724C76.6532 53.9973 77.2069 53.5707 77.5426 52.9871C77.8783 52.4032 77.9687 51.7098 77.7936 51.0594C77.6185 50.4091 77.1924 49.8549 76.6091 49.519L72.3795 47.0777L61.2266 40.6292C60.8563 40.3814 60.4209 40.2492 59.9755 40.2492C59.5302 40.2492 59.0947 40.3814 58.7244 40.6292L46.9882 47.4027C45.8073 48.0896 45.8478 49.0093 46.9882 49.6704C52.9448 53.1235 80.388 69.0971 81.2369 69.592C81.631 69.8095 81.9574 70.1315 82.1809 70.5222C82.404 70.913 82.5155 71.3581 82.5028 71.8081C82.5036 72.253 82.3869 72.69 82.1645 73.0753C81.9423 73.4604 81.6222 73.7802 81.2369 74.0019L61.2339 85.562C60.848 85.7831 60.411 85.8995 59.9662 85.8995C59.5216 85.8995 59.0846 85.7831 58.6984 85.562L38.6955 74.0019C38.3106 73.7795 37.9911 73.4599 37.7689 73.0745C37.5467 72.6895 37.4297 72.2527 37.4296 71.8081V60.1225C37.4265 59.6756 37.5413 59.2363 37.7624 58.8481C37.9835 58.4601 38.3031 58.1372 38.6888 57.9124C39.0745 57.6877 39.5127 57.5687 39.959 57.5676C40.4054 57.5666 40.8442 57.6835 41.2309 57.9064L61.223 69.4629C61.8052 69.7994 62.2303 70.3536 62.4044 71.0034C62.5785 71.6535 62.4873 72.3462 62.1511 72.929C61.8148 73.5118 61.2611 73.9372 60.6116 74.1113C59.962 74.2854 59.2698 74.1944 58.6875 73.8579L53.7788 71.0177V70.9808L45.8995 66.4232C45.3127 66.0888 44.6172 66.0012 43.9659 66.18C43.3146 66.3585 42.7609 66.7887 42.4267 67.3762C42.0924 67.9634 42.0049 68.6593 42.1835 69.3112C42.3621 69.9628 42.7921 70.517 43.3788 70.8514L46.1653 72.4619L58.7133 79.7192C59.084 79.966 59.5192 80.0975 59.9643 80.0975C60.4097 80.0975 60.8449 79.966 61.2154 79.7192L72.9478 72.942C74.129 72.255 74.0882 71.3389 72.9478 70.6779C66.9912 67.2024 38.6992 50.734 38.6992 50.734C38.3145 50.5111 37.9952 50.1909 37.7732 49.8055C37.5512 49.4202 37.4344 48.9832 37.4344 48.5384C37.4344 48.0936 37.5512 47.6566 37.7732 47.2712C37.9952 46.8858 38.3145 46.5656 38.6992 46.3427L58.7021 34.7863C59.0874 34.5633 59.5247 34.4458 59.9698 34.4458C60.4151 34.4458 60.8524 34.5633 61.2378 34.7863L81.2408 46.3427C81.6259 46.5648 81.9454 46.8845 82.1679 47.2696C82.39 47.6548 82.5069 48.0918 82.5064 48.5365V60.2332C82.5056 60.6781 82.3882 61.1148 82.1655 61.4999C81.9428 61.8847 81.6227 62.2043 81.2377 62.4267C80.8526 62.6489 80.4161 62.7658 79.9715 62.7661C79.5269 62.7661 79.0904 62.6491 78.7051 62.427L58.7021 50.8707C58.1445 50.5223 57.7436 49.9707 57.5846 49.3323C57.4255 48.6939 57.5204 48.0186 57.8493 47.4488C58.1783 46.8791 58.7156 46.4596 59.3478 46.2787Z" fill="white"/>
<path opacity="0.3" d="M65.3786 119.687C32.5849 122.817 3.44651 98.8173 0.31335 66.0521C-2.81981 33.2869 21.2011 4.17385 53.9948 1.04341C55.1436 0.939065 56.2925 0.834717 57.3369 0.834717C29.6606 5.21733 10.0261 33.1825 13.0549 64.7999C16.0836 96.4173 40.6267 120.104 68.7207 119.27C67.5718 119.478 66.423 119.583 65.3786 119.687Z" fill="#5C0823"/>
</g>
<defs>
<linearGradient id="paint0_linear_104_125" x1="0.735361" y1="59.5896" x2="120.018" y2="59.5896" gradientUnits="userSpaceOnUse">
<stop stop-color="#FD1662"/>
<stop offset="1" stop-color="#FE5837"/>
</linearGradient>
<clipPath id="clip0_104_125">
<rect width="120" height="120" fill="white"/>
</clipPath>
</defs>
</svg>
