<svg width="120" height="120" viewBox="0 0 120 120" fill="none" xmlns="http://www.w3.org/2000/svg">
<g clip-path="url(#clip0_104_103)">
<path d="M60.3656 119.165C93.3008 119.165 120 92.4892 120 59.5826C120 26.676 93.3008 0 60.3656 0C27.4303 0 0.731079 26.676 0.731079 59.5826C0.731079 92.4892 27.4303 119.165 60.3656 119.165Z" fill="url(#paint0_linear_104_103)"/>
<path opacity="0.1" d="M120 59.5826C120 92.4522 93.2637 119.165 60.3656 119.165C27.4674 119.165 0.731079 92.4522 0.731079 59.5826C0.731079 58.4348 0.731079 57.287 0.835518 56.1392C2.61098 84.1044 28.6162 106.33 60.3656 106.33C92.1149 106.33 118.12 84.1044 119.896 56.1392C120 57.287 120 58.4348 120 59.5826Z" fill="white"/>
<path opacity="0.3" d="M65.3786 119.687C32.5849 122.817 3.44651 98.8173 0.31335 66.0521C-2.81981 33.2869 21.2011 4.17385 53.9948 1.04341C55.1436 0.939065 56.2925 0.834717 57.3369 0.834717C29.6606 5.21733 10.0261 33.1825 13.0549 64.7999C16.0836 96.4173 40.6267 120.104 68.7207 119.27C67.5718 119.478 66.423 119.583 65.3786 119.687Z" fill="#5C0823"/>
<path d="M76.2285 43.4312L80.426 39.2104L84.5109 43.3179L80.3134 47.5386C84.4611 52.759 86.4636 59.3783 85.9094 66.0369C85.3552 72.6955 82.2865 78.888 77.3335 83.3426C72.3804 87.7972 65.9191 90.1758 59.2765 89.9899C52.6338 89.8039 46.3141 87.0676 41.6152 82.3428C36.9163 77.618 34.195 71.2634 34.0101 64.5841C33.8252 57.9048 36.1907 51.4078 40.6209 46.4275C45.0511 41.4472 51.2096 38.3615 57.8317 37.8043C64.4537 37.247 71.0367 39.2605 76.2285 43.4312ZM57.1098 49.3337V66.7627H62.8876V49.3337H57.1098ZM48.4432 29H71.5543V34.8096H48.4432V29Z" fill="white"/>
</g>
<defs>
<linearGradient id="paint0_linear_104_103" x1="0.735361" y1="59.5896" x2="120.018" y2="59.5896" gradientUnits="userSpaceOnUse">
<stop stop-color="#FD1662"/>
<stop offset="1" stop-color="#FE5837"/>
</linearGradient>
<clipPath id="clip0_104_103">
<rect width="120" height="120" fill="white"/>
</clipPath>
</defs>
</svg>
