<svg width="608" height="579" viewBox="0 0 608 579" fill="none" xmlns="http://www.w3.org/2000/svg">
<g opacity="0.8">
<path opacity="0.2" d="M-37 325L324.5 70L401 142L308 578.5L-7 569L-37 325Z" fill="#DDD516" fill-opacity="0.2"/>
<path d="M412.782 46.1751L451.186 19.9285C453.908 18.0683 457.492 18.0683 460.214 19.9285L554.624 84.4513C558.986 87.433 561.596 92.3766 561.596 97.661V493.688" stroke="#CBCBCB" stroke-width="8"/>
<rect x="513.591" y="492.088" width="94.4089" height="11.2011" rx="3" fill="#AFB9C5"/>
<path d="M368.211 25.9446C382.074 12.081 404.552 12.081 418.415 25.9446L442.888 50.4175C456.752 64.2811 456.752 86.7585 442.888 100.622L398.97 144.54L324.293 69.8624L368.211 25.9446Z" fill="#FF7B61"/>
<path fill-rule="evenodd" clip-rule="evenodd" d="M355.541 113.696C376.163 134.318 396.173 147.742 400.234 143.68C404.296 139.618 390.872 119.609 370.25 98.9869C349.629 78.3653 329.619 64.941 325.557 69.0028C321.495 73.0646 334.919 93.0745 355.541 113.696Z" fill="#FED7CC"/>
<path fill-rule="evenodd" clip-rule="evenodd" d="M146.938 272.736C165.604 304.052 187.345 334.374 200.401 368.613C199.875 364.577 199.317 360.545 198.692 356.52C195.38 335.179 191.262 313.994 186.936 292.835C184.733 282.062 182.402 271.327 180.012 260.594C178.727 254.829 177.457 249.061 176.145 243.302C175.827 241.906 175.554 239.469 175.157 237C187.845 278.637 200.081 320.305 209.031 362.942C210.205 368.538 211.205 374.124 212.024 379.7C212.304 378.428 212.58 377.156 212.881 375.887C216.503 360.68 221.935 345.594 228.403 331.374C231.495 324.575 235.046 317.924 239.228 311.726C241.836 307.863 247.986 303.271 250.364 299.314C237.355 323.176 232.657 353.032 225.145 378.973C223.312 385.304 221.467 391.624 219.659 397.955C230.987 375.237 248.563 356.571 273 348.483C243.42 368.027 225.678 402.254 213.722 437.26C213.683 437.675 213.636 438.09 213.595 438.506C217.114 431.829 221.545 425.789 227.551 421.56C240.407 412.504 254.667 415.142 267.137 422.91C257.35 416.689 239.663 422.354 231.428 428.677C225.533 433.203 220.495 439.275 216.12 445.2C215.072 446.62 213.641 448.277 212.13 450.044C210.012 463.795 206.56 477.452 201.672 491C202.479 487.111 201.896 480.892 202.12 477.993C202.144 477.68 202.164 477.365 202.188 477.053C201.445 480.019 200.727 482.951 200.036 485.837C201.41 480.331 202.156 474.583 202.739 468.776C202.889 466.281 203.036 463.785 203.19 461.29C203.141 456.553 202.946 451.799 202.616 447.036C201.447 442.408 200.137 438.042 199.056 434.411C195.159 421.31 189.444 408.76 182.411 397.051C175.994 386.366 168.312 376.688 159.445 367.935C154.664 363.217 149.661 358.725 144.729 354.17C142.945 352.523 139.757 348.474 137 346.363C157.08 357.434 177.749 369.41 192.398 387.248C190.68 380.653 188.815 374.151 186.842 367.78C176.831 335.454 164.191 301.953 146.938 272.736Z" fill="#FF7B61" fill-opacity="0.53"/>
<path fill-rule="evenodd" clip-rule="evenodd" d="M167 450C167 485.899 169.843 515 208 515C246.157 515 249 485.899 249 450" fill="#FFBCAD"/>
<path fill-rule="evenodd" clip-rule="evenodd" d="M297.683 205.181C303.287 208.559 308.793 210.191 311.378 209.525C317.859 207.854 318.455 184.143 313.44 174.796C308.425 165.448 282.644 161.374 281.344 179.894C280.893 186.322 283.592 192.059 287.58 196.74L280.43 230.067H301.2L297.683 205.181Z" fill="#B28B67"/>
<path fill-rule="evenodd" clip-rule="evenodd" d="M301.602 164.022C298.864 163.573 291.493 163.265 290.134 163.265C289.266 163.265 288.324 163.463 287.81 162.666C287.388 162.012 287.543 160.908 287.417 160.15C287.271 159.269 287.064 158.4 286.854 157.533C286.257 155.066 285.354 152.719 284.091 150.516C281.722 146.382 278.25 143.143 273.867 141.259C269.027 139.179 263.55 138.702 258.344 139.124C252.773 139.576 247.73 141.415 242.47 143.145C237.458 144.795 232.208 145.444 226.965 144.638C221.683 143.827 217.692 140.964 213.237 138.247C208.676 135.465 203.463 133.646 198.071 134.064C193.038 134.455 188.399 136.533 184.237 139.309C180.343 141.906 177.13 145.032 175.316 149.43C173.365 154.161 173.367 159.354 176.576 163.536C181.227 169.597 189.862 171.164 197.046 171.008C201.202 170.918 205.283 170.16 209.206 168.78C214.438 166.94 218.959 163.82 223.854 161.29C226.151 160.102 228.525 159.127 231.014 158.424C233.429 157.742 235.808 157.429 237.995 158.888C240.308 160.432 242.381 161.948 245.027 162.914C247.566 163.841 250.255 164.359 252.959 164.339C258.222 164.298 263.409 162.658 268.52 161.56C272.688 160.665 277.148 159.772 281.397 160.633C283.17 160.992 285.76 161.734 286.4 163.576C275.622 165.53 271.388 178.86 274.427 188.645C276.067 193.927 285.925 200.101 289.758 197.324C292.186 195.565 290.712 193.256 289.758 191.732C287.931 188.812 287.306 185.062 290.687 183.029C293.603 181.276 296.669 185.439 296.727 185.435C297.529 185.372 304.455 181.455 309.226 175.739C313.934 176.018 314.648 172.914 313.524 170.376C312.4 167.837 305.384 164.643 301.602 164.022Z" fill="#191847"/>
<path fill-rule="evenodd" clip-rule="evenodd" d="M266.611 303.148L297.941 413.306L320.799 494.498H337.471L313.181 303.148H266.611Z" fill="#0E0E0E"/>
<path fill-rule="evenodd" clip-rule="evenodd" d="M258.233 303.148C257.508 359.925 255.037 390.892 254.276 396.05C253.515 401.209 242.011 434.024 219.762 494.498H237.034C265.357 436.484 281.168 403.668 284.467 396.05C287.765 388.432 297.944 357.465 313.275 303.148H258.233Z" fill="#292929"/>
<path fill-rule="evenodd" clip-rule="evenodd" d="M218.219 510.083L219.083 491.9L237.23 491.9C250.137 500.991 270.932 506.619 270.932 506.619V510.083H238.094L226.86 508.351V510.083H218.219Z" fill="#0E0E0E"/>
<path fill-rule="evenodd" clip-rule="evenodd" d="M318.46 510.083L319.324 491.9L337.472 491.9C350.379 500.991 371.173 506.619 371.173 506.619V510.083H338.336L327.102 508.351V510.083H318.46Z" fill="#0E0E0E"/>
<path fill-rule="evenodd" clip-rule="evenodd" d="M207.489 330.445C210.716 325.712 232.463 262.02 232.463 262.02L251.219 264.727C251.219 264.727 220.035 331.052 218.253 334.136C215.939 338.143 217.988 344.726 219.378 349.19C219.593 349.88 219.793 350.52 219.957 351.092C217.04 351.932 215.93 350.265 214.76 348.507C213.438 346.522 212.039 344.421 207.873 345.688C206.263 346.177 204.717 346.806 203.206 347.42C197.988 349.542 193.194 351.491 187.686 346.929C186.813 346.206 186.077 343.842 188.852 342.465C195.764 339.036 205.912 332.759 207.489 330.445ZM369.126 327.153L348.172 300.1L338.151 312.894L361.308 331.3C366.239 342.143 369.352 346.966 370.648 345.769C371.74 344.76 371.488 343.451 371.257 342.244C371.076 341.305 370.908 340.428 371.396 339.804C372.511 338.381 377.455 339.981 382.081 341.699C386.708 343.417 385.932 340.921 385.089 339.557C381.088 335.288 375.767 331.154 369.126 327.153Z" fill="#B28B67"/>
<path fill-rule="evenodd" clip-rule="evenodd" d="M297.115 216.916L304.704 216.689C310.589 259.522 366.624 296.031 368.142 311.947C368.698 317.784 364.226 320.067 366.087 322.083L355.465 327.768C354.101 325.639 350.132 328.624 343.204 325.172C336.277 321.72 290.26 265.692 297.115 216.916Z" fill="#CF2301"/>
<path fill-rule="evenodd" clip-rule="evenodd" d="M285.67 206.575C283.509 206.116 281.385 207.496 280.925 209.656L279.983 214.086C264.531 222.839 225.466 249.995 208.082 308.325C206.256 314.452 207.496 318.046 208.487 320.917C209.165 322.881 209.726 324.508 209.109 326.376L221.227 331.621C221.426 330.206 223.166 329.352 225.411 328.251C228.675 326.65 233.007 324.526 235.221 319.389C237.318 314.52 240.237 308.48 243.651 301.784C242.57 311.135 243.136 319.954 245.996 327.595C253.129 346.656 311.462 335.05 319.81 317.8C324.265 308.595 321.004 299.883 316.691 288.361C311.216 273.735 304.046 254.582 308.811 224.144L310.554 215.95C311.014 213.79 309.635 211.666 307.474 211.207L285.67 206.575Z" fill="#FE5837"/>
</g>
</svg>
